<svg width="280" height="158" viewBox="0 0 280 158" fill="none" xmlns="http://www.w3.org/2000/svg">
<path d="M50.5366 116.937C43.9811 116.937 38.647 122.271 38.647 128.827C38.647 135.383 43.9805 140.717 50.5366 140.717C57.0928 140.717 62.4262 135.383 62.4262 128.827C62.4257 122.271 57.0922 116.937 50.5366 116.937ZM50.5366 132.485C48.5199 132.485 46.8785 130.844 46.8785 128.826C46.8785 126.809 48.5194 125.168 50.5366 125.168C52.5539 125.168 54.1947 126.809 54.1947 128.826C54.1942 130.844 52.5534 132.485 50.5366 132.485Z" fill="#002A4D"/>
<path d="M230.879 116.937C224.324 116.937 218.99 122.271 218.99 128.827C218.99 135.383 224.323 140.717 230.879 140.717C237.435 140.717 242.769 135.383 242.769 128.827C242.769 122.271 237.435 116.937 230.879 116.937ZM230.879 132.485C228.862 132.485 227.221 130.844 227.221 128.826C227.221 126.809 228.862 125.168 230.879 125.168C232.896 125.168 234.537 126.809 234.537 128.826C234.537 130.844 232.896 132.485 230.879 132.485Z" fill="#002A4D"/>
<path d="M269.466 93.7575V93.7295V56.4528C269.466 51.7822 268.217 47.1846 265.853 43.1567L261.081 35.0234C259.93 33.0626 257.408 32.4052 255.448 33.5571C253.488 34.7073 252.831 37.2294 253.982 39.1896L258.754 47.3229C260.378 50.0893 261.235 53.2458 261.235 56.4533V57.0839H252.971C248.209 57.0839 244.336 60.9576 244.336 65.7193V89.2098C244.336 93.9715 248.209 97.8453 252.971 97.8453H261.271C261.524 99.8757 263.252 101.448 265.351 101.448H265.543C268.976 101.448 271.769 104.241 271.769 107.674V114.342H255.24C250.288 106.046 241.224 100.475 230.879 100.475C220.535 100.475 211.471 106.046 206.519 114.342H165.163L170.304 102.875C170.87 101.614 171.157 100.272 171.157 98.8885V65.3154H198.666C200.939 65.3154 202.782 63.4726 202.782 61.1996C202.782 58.9266 200.939 57.0839 198.666 57.0839H179.391V25.516H224.547L224.514 57.0839H216.206C213.933 57.0839 212.09 58.9266 212.09 61.1996C212.09 63.4726 213.933 65.3154 216.206 65.3154H224.514C229.072 65.3154 232.78 61.6068 232.78 57.0487V24.0766C232.78 20.34 229.741 17.2933 225.966 17.2845H130.192C128.53 17.2845 126.924 17.8854 125.671 18.9763L80.7095 58.0947C79.4144 59.2219 78.9545 61.0339 79.556 62.6418C80.1574 64.2497 81.694 65.3154 83.4105 65.3154H162.924V98.8885C162.924 99.1036 162.88 99.3116 162.792 99.5075L156.141 114.342H109.225C106.952 114.342 105.109 116.185 105.109 118.458C105.109 120.731 106.952 122.574 109.225 122.574H203.23C202.774 124.587 202.526 126.678 202.526 128.828C202.526 129.517 202.56 130.199 202.608 130.877H78.8064C78.8552 130.199 78.8887 129.517 78.8887 128.828C78.8887 126.679 78.6401 124.587 78.1852 122.574H91.6859C93.9589 122.574 95.8017 120.731 95.8017 118.458C95.8017 116.185 93.9589 114.342 91.6859 114.342H74.8964C71.9764 109.45 67.6258 105.51 62.4256 103.097V63.0912L121.49 11.7024C123.454 9.99355 125.969 9.05241 128.572 9.05241H225.965C232.337 9.05241 238.299 12.4663 241.524 17.9617L245.093 24.0442C246.243 26.0044 248.765 26.6607 250.726 25.5111C252.686 24.3608 253.343 21.8387 252.193 19.878L248.624 13.7954C243.927 5.79218 235.245 0.820343 225.966 0.820343H128.573C123.983 0.820343 119.549 2.47927 116.087 5.492L56.7706 57.1003H28.9129C12.9701 57.1009 0 70.071 0 86.0138V130.237C0 135.129 3.97912 139.108 8.87028 139.108H24.1216C28.2478 149.672 38.529 157.18 50.5366 157.18C62.5442 157.18 72.8253 149.673 76.9515 139.108H204.464C208.591 149.672 218.872 157.18 230.879 157.18C242.887 157.18 253.169 149.673 257.295 139.108H271.103C276.009 139.108 280.001 135.116 280.001 130.211V107.674C280 101.061 275.538 95.4713 269.466 93.7575ZM252.97 65.3148H261.235V73.3482H252.567V65.7187C252.567 65.4965 252.748 65.3148 252.97 65.3148ZM252.567 89.2098V81.5803H261.235V89.6137H252.97C252.748 89.6137 252.567 89.4326 252.567 89.2098ZM162.923 25.5154H171.159V57.0833H162.923V25.5154ZM130.695 25.5154H154.692V57.0833H94.4122L130.695 25.5154ZM54.1941 65.3324V100.719C52.9956 100.563 51.7762 100.475 50.536 100.475C40.1835 100.475 31.1129 106.055 26.1636 114.363C26.0275 114.349 25.8898 114.342 25.7504 114.342H8.23152V93.5341H19.4253C26.2723 93.5341 31.8423 87.9636 31.8423 81.1166C31.8423 74.2696 26.2723 68.6996 19.4253 68.6996H17.6231C20.8718 66.5743 24.7489 65.3329 28.9129 65.3329H54.1941V65.3324ZM19.4253 76.9301C21.7334 76.9301 23.6107 78.8079 23.6107 81.1155C23.6107 83.4236 21.7329 85.3015 19.4253 85.3015H8.24963C8.3517 82.3074 9.08979 79.4725 10.3382 76.9301H19.4253ZM8.87028 130.876C8.51797 130.876 8.23152 130.59 8.23152 130.237V122.573H22.8875C22.432 124.587 22.1839 126.678 22.1839 128.827C22.1839 129.517 22.2174 130.198 22.2663 130.876H8.87028ZM50.5366 148.948C39.4421 148.948 30.4155 139.921 30.4155 128.826C30.4155 117.731 39.4416 108.705 50.5366 108.705C61.6316 108.705 70.6577 117.731 70.6577 128.826C70.6577 139.921 61.631 148.948 50.5366 148.948ZM230.879 148.948C219.785 148.948 210.758 139.921 210.758 128.826C210.758 117.731 219.784 108.705 230.879 108.705C241.974 108.705 251 117.731 251 128.826C251 139.921 241.974 148.948 230.879 148.948ZM271.103 130.876H259.149C259.198 130.198 259.231 129.517 259.231 128.827C259.231 126.678 258.983 124.587 258.528 122.573H271.769V130.21C271.769 130.578 271.47 130.876 271.103 130.876Z" fill="#002A4D"/>
<path d="M152.311 79.9872C154.584 79.9872 156.426 78.1445 156.426 75.8715C156.426 73.5985 154.584 71.7557 152.311 71.7557H144.401C142.128 71.7557 140.285 73.5985 140.285 75.8715C140.285 78.1445 142.128 79.9872 144.401 79.9872H152.311Z" fill="#002A4D"/>
</svg>
