<svg width="235" height="236" viewBox="0 0 235 236" fill="none" xmlns="http://www.w3.org/2000/svg">
<g clip-path="url(#clip0)">
<path d="M149.483 79.7404C144.771 79.7404 141.548 82.5802 138.952 84.8636C137.78 85.8977 136.167 87.3155 135.427 87.3155C135.27 87.3155 135.062 87.2292 134.918 87.159C131.33 85.3612 126.974 87.668 124.907 92.6696C123.426 96.2377 122.956 101.654 126.481 105.179C133.316 112.014 139.347 113.447 143.201 113.447C149.37 113.447 154.45 109.695 156.467 103.648C157.148 101.6 158.319 99.7664 159.451 97.9924C161.672 94.5142 165.393 88.6902 159.106 83.6808C155.777 81.0288 152.633 79.7404 149.483 79.7404ZM152.848 93.7776C151.591 95.7475 150.024 98.2036 149.037 101.172C148.081 104.035 146.005 105.614 143.201 105.614C139.844 105.614 135.869 103.491 132.019 99.6411C131.713 99.3317 131.564 98.5992 131.631 97.7257C131.736 96.4608 132.226 95.3289 132.649 94.6827C133.57 94.992 134.498 95.149 135.43 95.149C139.124 95.149 141.783 92.8068 144.129 90.7428C145.982 89.1134 147.729 87.5744 149.483 87.5744C150.772 87.5744 152.366 88.3262 154.227 89.8069C154.571 90.085 154.716 90.265 154.755 90.2728C154.673 90.9186 153.58 92.6342 152.848 93.7776Z" fill="#002A4D"/>
<path d="M49.7066 55.1829C51.7473 55.9077 53.9835 54.8346 54.7045 52.7976C64.0885 26.2463 89.3275 8.41015 117.5 8.41015C121.898 8.41015 126.277 8.84113 130.558 9.69071C130.523 12.0683 130.781 14.606 131.028 17.0895C131.259 19.3689 131.623 23.0389 131.314 24.504C123.575 27.234 118.048 32.012 116.094 37.6952C114.66 41.8623 115.267 46.2451 117.797 50.0446C119.125 52.0343 120.285 54.2746 121.401 56.4442C123.731 60.9524 126.763 66.8311 131.611 66.8311C132.641 66.8311 133.758 66.5648 134.964 65.9617C137.988 64.4462 139.931 60.9799 141.983 57.3099C143.969 53.7693 146.436 49.3589 148.833 49.3589C150.212 49.3589 150.737 49.6136 151.787 54.5757C152.492 57.9089 153.369 62.0567 157.074 63.905C162.213 66.4859 178.142 63.9518 187.091 60.1492C187.256 60.0785 187.362 59.9495 187.51 59.8595C187.741 59.7264 187.961 59.5933 188.153 59.4207C188.345 59.2486 188.49 59.0604 188.643 58.8567C188.791 58.657 188.932 58.4651 189.046 58.2379C189.156 58.0149 189.218 57.7836 189.285 57.5371C189.352 57.2943 189.407 57.0593 189.422 56.8045C189.442 56.5539 189.41 56.3033 189.379 56.0449C189.356 55.8687 189.387 55.7002 189.344 55.524C183.794 35.0046 169.659 17.7987 150.569 8.31238C148.618 7.34484 146.28 8.14026 145.32 10.0749C144.353 12.0136 145.148 14.3636 147.083 15.327C163.102 23.2817 175.126 37.3427 180.668 54.1883C172.557 56.8165 162.64 57.6899 160.67 56.9615C160.196 56.4915 159.73 54.2787 159.452 52.9546C158.606 48.9596 157.035 41.5259 148.833 41.5259C141.842 41.5259 138.133 48.1568 135.149 53.4875C134.232 55.1325 132.764 57.7528 131.8 58.6809C130.833 57.6353 129.372 54.8075 128.361 52.8527C127.202 50.6004 125.886 48.0508 124.315 45.7008C123.14 43.9305 122.862 42.0973 123.501 40.2407C124.691 36.7786 128.784 33.59 134.448 31.71C140.182 29.8025 139.457 22.635 138.823 16.3097C138.506 13.157 138.149 9.58469 138.611 7.46188C139.062 5.39783 137.793 3.34525 135.74 2.82844C129.81 1.33261 123.669 0.57666 117.5 0.57666C86.0141 0.57666 57.81 20.5126 47.3213 50.1851C46.5966 52.2257 47.666 54.4623 49.7066 55.1829Z" fill="#002A4D"/>
<path d="M47 204.243C48.0029 204.243 49.0053 203.859 49.7691 203.096C51.3007 201.564 51.3007 199.089 49.7691 197.558L14.296 162.104C14.0334 161.873 7.83349 156.342 7.83349 145.493V86.7432C7.83349 82.4232 11.3466 78.9097 15.667 78.9097C19.9833 78.9097 23.5005 82.4228 23.5005 86.7432V117.751C23.5005 119.913 25.251 121.668 27.417 121.668C29.5829 121.668 31.3335 119.913 31.3335 117.751V86.7432C31.3335 78.1028 24.3069 71.0767 15.667 71.0767C7.02659 71.0767 0 78.1033 0 86.7432V145.493C0 160.118 8.84784 167.752 8.98095 167.846L44.2309 203.096C44.9947 203.859 45.9971 204.243 47 204.243Z" fill="#002A4D"/>
<path d="M191.917 74.9932C191.917 73.6653 191.881 72.3453 191.815 71.0372C191.697 68.8754 189.841 67.1716 187.698 67.3318C185.536 67.4415 183.875 69.2861 183.989 71.4443C184.048 72.6234 184.083 73.8021 184.083 74.9927C184.083 111.324 154.829 140.957 118.64 141.568C105.613 132.94 107.074 124.934 109.349 119.619C116.806 102.217 106.036 94.3178 101.982 91.3408C101.724 91.1526 101.485 90.9883 101.281 90.8318C101.235 89.3906 101.881 85.9477 102.37 83.3664C103.271 78.5567 104.399 72.572 104.399 66.4854C104.399 61.3898 101.806 57.3204 97.2859 55.3229C92.2531 53.0982 85.5239 53.9088 81.9443 57.1676C79.5865 59.3101 78.7677 62.3495 79.7508 65.2907C80.6908 68.1107 80.2796 73.1788 77.6748 77.4088C76.3392 79.5784 73.9107 82.285 69.9318 82.8647C69.2543 82.9666 68.933 82.9157 68.9018 82.9432C68.5181 82.4457 68.1537 80.5225 67.915 79.242C66.83 73.5235 64.8132 62.8705 47.4897 62.8705C47.3057 62.8705 47.145 62.9526 46.9688 62.976C46.6948 63.0114 46.4322 63.0467 46.1775 63.1367C45.9503 63.2188 45.7621 63.3327 45.5588 63.4538C45.3238 63.5869 45.1044 63.7164 44.9047 63.8926C44.7244 64.0533 44.5912 64.241 44.4425 64.4333C44.286 64.6371 44.1332 64.8289 44.0157 65.0598C43.8982 65.2948 43.8394 65.5454 43.7729 65.8038C43.7261 65.9801 43.6278 66.1288 43.6044 66.3128C43.24 69.2935 43.0835 71.89 43.0835 74.9922C43.0835 106.49 63.0273 134.694 92.7116 145.179C93.1426 145.332 93.5851 145.406 94.0161 145.406C95.6299 145.406 97.1418 144.399 97.7095 142.79C98.4301 140.753 97.357 138.513 95.3205 137.792C68.7614 128.412 50.9174 103.173 50.9174 74.9927C50.9174 73.5437 50.9606 72.2158 51.0427 70.8999C58.5274 71.8087 59.2911 75.8037 60.2155 80.7034C60.9595 84.6121 62.3503 91.8893 71.0646 90.6202C76.5008 89.8252 81.2164 86.5899 84.3462 81.5181C87.8675 75.7996 89.0072 68.2837 87.1074 63.0784C87.5462 62.3968 90.4406 61.3512 93.3583 62.2091C96.233 63.0591 96.5662 65.0566 96.5662 66.4859C96.5662 71.8441 95.5165 77.429 94.6706 81.9174C93.3859 88.7402 92.5358 93.2483 95.2856 95.994C95.74 96.4521 96.4606 97.0083 97.346 97.6587C101.259 100.526 107.157 104.854 102.152 116.533C98.4737 125.118 97.7843 137.687 115.413 148.807C116.036 149.202 116.761 149.41 117.501 149.41C158.535 149.41 191.917 116.028 191.917 74.9932Z" fill="#002A4D"/>
<path d="M90.0835 212.077H86.167V180.743C86.167 166.33 77.3586 158.528 77.186 158.391L49.769 130.974C46.8237 128.025 43.0284 126.313 39.0922 126.149C34.9365 126.004 31.0631 127.528 28.0903 130.5C25.1138 133.473 23.5707 137.382 23.735 141.502C23.8993 145.439 25.615 149.234 28.5644 152.179L48.1479 171.763C49.6795 173.294 52.1548 173.294 53.686 171.763C55.2172 170.231 55.2172 167.756 53.686 166.225L34.1025 146.641C32.5475 145.086 31.647 143.147 31.5685 141.181C31.4863 139.247 32.2028 137.468 33.6289 136.039C35.0586 134.613 36.7894 133.893 38.7713 133.979C40.7376 134.058 42.68 134.958 44.2309 136.513L71.8315 164.102C72.0941 164.341 78.333 170.036 78.333 180.744V212.077H27.4165C25.2506 212.077 23.5 213.831 23.5 215.993V231.66C23.5 233.822 25.2506 235.576 27.4165 235.576C29.5825 235.576 31.333 233.822 31.333 231.66V219.91H86.1665V231.66C86.1665 233.822 87.9171 235.576 90.083 235.576C92.249 235.576 93.9995 233.822 93.9995 231.66V215.993C94 213.831 92.2494 212.077 90.0835 212.077Z" fill="#002A4D"/>
<path d="M219.333 71.0767C210.693 71.0767 203.667 78.1033 203.667 86.7432V117.751C203.667 119.913 205.418 121.668 207.583 121.668C209.749 121.668 211.5 119.913 211.5 117.751V86.7432C211.5 82.4232 215.013 78.9097 219.333 78.9097C223.65 78.9097 227.167 82.4228 227.167 86.7432V145.493C227.167 156.342 220.967 161.872 220.481 162.308L185.231 197.558C183.7 199.089 183.7 201.565 185.231 203.096C185.995 203.859 186.998 204.243 188 204.243C189.003 204.243 190.006 203.859 190.77 203.096L225.773 168.069C226.153 167.752 235 160.118 235 145.493V86.7432C235 78.1033 227.973 71.0767 219.333 71.0767Z" fill="#002A4D"/>
<path d="M207.583 212.077H156.667V180.743C156.667 170.035 162.906 164.34 163.352 163.929L190.769 136.512C192.319 134.957 194.262 134.057 196.228 133.978C198.226 133.892 199.941 134.612 201.371 136.038C202.796 137.468 203.513 139.246 203.431 141.181C203.353 143.147 202.452 145.086 200.897 146.64L181.314 166.224C179.783 167.756 179.783 170.231 181.314 171.762C182.846 173.294 185.321 173.294 186.853 171.762L206.436 152.179C209.385 149.233 211.097 145.438 211.265 141.502C211.43 137.382 209.887 133.473 206.91 130.5C203.937 127.527 200.068 126 195.908 126.148C191.972 126.313 188.177 128.024 185.231 130.974L158.018 158.202C157.642 158.527 148.833 166.33 148.833 180.743V212.077H144.917C142.751 212.077 141 213.831 141 215.993V231.66C141 233.821 142.751 235.576 144.917 235.576C147.083 235.576 148.833 233.821 148.833 231.66V219.91H203.667V231.66C203.667 233.821 205.418 235.576 207.583 235.576C209.749 235.576 211.5 233.821 211.5 231.66V215.993C211.5 213.831 209.749 212.077 207.583 212.077Z" fill="#002A4D"/>
</g>
<defs>
<clipPath id="clip0">
<rect width="235" height="235" fill="white" transform="translate(0 0.57666)"/>
</clipPath>
</defs>
</svg>
