<svg width="50" height="43" viewBox="0 0 50 43" fill="none" xmlns="http://www.w3.org/2000/svg">
<path d="M43.2626 0H6.73798C3.01695 0 0.000328064 2.58557 0.000328064 5.77513V37.0821C0.000328064 40.2717 3.01683 42.8573 6.73798 42.8573H24.7517L24.7824 27.5424H20.1405C19.5373 27.5424 19.0476 27.1243 19.0453 26.6072L19.023 21.6706C19.0207 21.1507 19.5118 20.7282 20.1184 20.7282H24.7519V15.9582C24.7519 10.4226 28.6961 7.40844 34.4572 7.40844H39.1846C39.7895 7.40844 40.2799 7.82874 40.2799 8.34728V12.5099C40.2799 13.0282 39.7898 13.4484 39.1852 13.4487L36.2841 13.4499C33.151 13.4499 32.5443 14.726 32.5443 16.5987V20.7283H39.4288C40.0847 20.7283 40.5937 21.2193 40.5164 21.7776L39.8337 26.7143C39.7684 27.1867 39.3011 27.5426 38.7461 27.5426H32.575L32.5443 42.8575H43.2628C46.9838 42.8575 50.0003 40.2719 50.0003 37.0824V5.77513C50.0002 2.58557 46.9837 0 43.2626 0Z" fill="#FF6430"/>
</svg>
