<svg width="250" height="251" viewBox="0 0 250 251" fill="none" xmlns="http://www.w3.org/2000/svg">
<g clip-path="url(#clip0)">
<path d="M67.708 130.223H57.2915V140.639H67.708V130.223Z" fill="#002A4D"/>
<path d="M213.542 94.1289V5.22266C213.542 2.34619 211.21 0.0141602 208.334 0.0141602H104.167C101.29 0.0141602 98.958 2.34619 98.958 5.22266V79.2852C93.5137 80.9536 88.189 82.9897 83.0205 85.3789L66.6143 64.5454C64.8506 62.2729 61.5786 61.8603 59.3067 63.624C58.0401 64.6069 57.2964 66.1191 57.2915 67.7227V102.358C48.2842 110.283 41.1656 120.125 36.458 131.16L7.03127 120.118C4.33694 119.111 1.33596 120.479 0.329615 123.174C0.1094 123.763 -0.00192787 124.386 2.52587e-05 125.014V171.889C2.52587e-05 174.766 2.33206 177.098 5.20852 177.098H34.6875C40.9282 194.065 52.5181 208.543 67.7085 218.348V244.806C67.7085 247.683 70.0406 250.015 72.917 250.015H104.167C107.043 250.015 109.376 247.683 109.376 244.806V236.056C129.945 240.745 151.306 240.745 171.876 236.056V244.806C171.876 247.683 174.208 250.015 177.084 250.015H208.334C211.21 250.015 213.543 247.683 213.543 244.806V218.348C236.771 202.723 250 180.066 250 156.264C250 132.462 236.719 109.91 213.542 94.1289ZM109.375 10.4307H203.125V20.8472H109.375V10.4307ZM109.375 31.2642H203.125V130.691C186.345 113.676 163.428 104.123 139.531 104.181C129.256 104.185 119.057 105.947 109.375 109.39V31.2642ZM205.521 211.16C204.031 212.116 203.128 213.764 203.125 215.535V239.598H182.292V229.181C182.399 226.307 180.156 223.889 177.281 223.782C176.74 223.762 176.199 223.826 175.677 223.973C152.748 230.382 128.501 230.382 105.573 223.973C102.804 223.194 99.9278 224.808 99.1489 227.577C99.0025 228.099 98.938 228.64 98.958 229.182V239.598H78.125V215.536C78.1221 213.765 77.2197 212.117 75.729 211.161C60.3736 202.022 48.9307 187.538 43.5938 170.483C42.9654 168.144 40.8067 166.546 38.3853 166.629H10.4165V132.514L37.6563 142.931C40.3526 143.933 43.3506 142.56 44.3531 139.863C44.3794 139.792 44.4038 139.721 44.4273 139.649C48.5923 127.6 56.021 116.944 65.8858 108.868C67.0996 107.832 67.7715 106.296 67.7085 104.702V82.7744L77.4483 95.1704C78.9961 97.147 81.7334 97.7383 83.9585 96.5767C88.8028 94.1377 93.8155 92.0488 98.9585 90.3267V113.868C95.9444 115.435 93.023 117.174 90.2085 119.077L95.9375 127.774C108.858 119.193 124.021 114.61 139.531 114.597C171.401 114.197 200.19 133.569 211.823 163.243L221.614 159.597C219.51 154.041 216.802 148.731 213.542 143.764V107.305C230.208 120.69 239.583 138.243 239.583 156.524C239.584 177.098 227.188 197.254 205.521 211.16Z" fill="#002A4D"/>
<path d="M151.042 93.7642H161.458V88.5557H166.667C169.543 88.5557 171.875 86.2236 171.875 83.3472V67.7222C171.875 64.8457 169.543 62.5137 166.667 62.5137H151.042V57.3052H171.875V46.8892H161.458V41.6807H151.042V46.8892H145.833C142.957 46.8892 140.625 49.2212 140.625 52.0977V67.7227C140.625 70.5991 142.957 72.9312 145.833 72.9312H161.458V78.1392H140.625V88.5557H151.042V93.7642Z" fill="#002A4D"/>
<path d="M197.917 36.4727H187.5V46.8892H197.917V36.4727Z" fill="#002A4D"/>
<path d="M125 36.4727H114.583V46.8892H125V36.4727Z" fill="#002A4D"/>
<path d="M107.292 198.973L101.042 207.306C113.838 216.275 128.921 221.423 144.531 222.15C158.279 222.31 171.479 216.766 180.99 206.837L173.646 199.494C145.834 227.098 108.854 200.118 107.292 198.973Z" fill="#002A4D"/>
</g>
<defs>
<clipPath id="clip0">
<rect width="250" height="250" fill="white" transform="translate(0 0.0141602)"/>
</clipPath>
</defs>
</svg>
