<svg width="50" height="43" viewBox="0 0 50 43" fill="none" xmlns="http://www.w3.org/2000/svg">
<path d="M49.2048 4.98561C48.0939 5.49323 46.9406 5.8937 45.7573 6.18362C47.0612 4.90685 48.0416 3.30988 48.5947 1.52738C48.7525 1.0185 48.2161 0.578466 47.7702 0.85093C46.124 1.85712 44.3508 2.61195 42.4996 3.0947C42.3922 3.12271 42.2814 3.13691 42.1702 3.13691C41.8331 3.13691 41.5053 3.0079 41.2474 2.77375C39.2779 0.985088 36.7449 0 34.115 0C32.977 0 31.8281 0.182773 30.6999 0.543294C27.2047 1.66041 24.5078 4.63137 23.6616 8.29688C23.3442 9.67176 23.2582 11.0479 23.406 12.387C23.4229 12.5409 23.3524 12.6483 23.3088 12.6986C23.2324 12.7869 23.124 12.8376 23.0115 12.8376C22.999 12.8376 22.986 12.8369 22.9732 12.8357C15.3222 12.1032 8.42287 8.30492 3.54606 2.14064C3.29737 1.82622 2.82048 1.86478 2.62226 2.21513C1.66725 3.90342 1.16257 5.83441 1.16257 7.79931C1.16257 10.8106 2.33664 13.6484 4.37599 15.7172C3.51838 15.5077 2.68833 15.1777 1.91728 14.7364C1.54425 14.5228 1.08528 14.7973 1.08004 15.237C1.02664 19.7104 3.56837 23.691 7.37595 25.4834C7.29927 25.4853 7.22259 25.4862 7.14579 25.4862C6.54224 25.4862 5.93113 25.4261 5.32965 25.3077C4.90957 25.225 4.55665 25.6357 4.68709 26.0554C5.92296 30.0313 9.24512 32.9619 13.2207 33.6273C9.92121 35.9096 6.07888 37.1136 2.07978 37.1136L0.833057 37.1128C0.448934 37.1128 0.124057 37.3708 0.0261669 37.7542C-0.07026 38.1318 0.107356 38.5301 0.434915 38.7265C4.94126 41.4289 10.0814 42.8571 15.3019 42.8571C19.8715 42.8571 24.146 41.9227 28.0067 40.0799C31.546 38.3905 34.6736 35.9755 37.3026 32.902C39.7516 30.0389 41.6668 26.7338 42.9946 23.0786C44.2603 19.5944 44.9293 15.8766 44.9293 12.3272V12.1581C44.9292 11.5882 45.1794 11.0519 45.6158 10.6869C47.2719 9.30131 48.714 7.6703 49.902 5.83918C50.2156 5.35568 49.7209 4.74971 49.2048 4.98561Z" fill="#FF6430"/>
</svg>
